<svg width="181" height="125" viewBox="0 0 181 125" fill="none" xmlns="http://www.w3.org/2000/svg">
<path fill-rule="evenodd" clip-rule="evenodd" d="M0 2.68388C0 1.20161 1.20162 0 2.68388 0H118.842C153.171 0 181 27.8293 181 62.1584C181 96.4875 153.171 124.317 118.842 124.317H2.68402C1.20168 124.317 0 123.115 0 121.633C0 120.15 1.20167 118.949 2.68402 118.949H52.8186C58.0362 118.949 62.2658 114.719 62.2658 109.501C62.2658 104.284 58.0362 100.054 52.8186 100.054H6.33387C2.83577 100.054 0 97.2185 0 93.7204C0 90.2223 2.83577 87.3865 6.33386 87.3865H25.3355C30.553 87.3865 34.7827 83.1569 34.7827 77.9393C34.7827 72.7218 30.553 68.4921 25.3355 68.4921H6.33368C2.83569 68.4921 0 65.6564 0 62.1584C0 58.6604 2.83568 55.8247 6.33368 55.8247H34.9976C40.2152 55.8247 44.4448 51.5951 44.4448 46.3775C44.4448 41.16 40.2152 36.9303 34.9976 36.9303H6.33406C2.83586 36.9303 0 34.0945 0 30.5962C0 27.098 2.83585 24.2622 6.33406 24.2622H77.5102C82.7277 24.2622 86.9574 20.0325 86.9574 14.815C86.9574 9.59742 82.7278 5.36775 77.5102 5.36775H2.68388C1.20161 5.36775 0 4.16614 0 2.68388Z" fill="#B8DCFE"/>
</svg>
